<svg width="1148" height="326" viewBox="0 0 1148 326" fill="none" xmlns="http://www.w3.org/2000/svg">
<path d="M33.332 135.716V141.22L9.012 156.388L6.132 152.42L28.724 138.468L6.132 124.58L8.756 120.484L33.332 135.716ZM72.187 142.468C72.187 146.244 74.363 148.132 78.715 148.132C81.083 148.132 83.515 147.62 86.011 146.596L89.563 156.772C85.467 159.012 80.571 160.132 74.875 160.132C68.923 160.132 64.443 158.436 61.435 155.044C58.491 151.588 57.019 146.756 57.019 140.548V97.636H42.043V87.268H72.187V142.468ZM130.23 148.132C132.15 148.132 134.006 147.78 135.798 147.076C137.59 146.308 139.51 145.22 141.558 143.812L148.278 153.412C145.846 155.46 143.03 157.092 139.83 158.308C136.63 159.524 133.142 160.132 129.366 160.132C123.926 160.132 119.222 159.012 115.254 156.772C111.35 154.532 108.342 151.396 106.23 147.364C104.118 143.332 103.062 138.66 103.062 133.348C103.062 128.036 104.15 123.3 106.326 119.14C108.502 114.98 111.574 111.716 115.542 109.348C119.574 106.98 124.278 105.796 129.654 105.796C133.43 105.796 136.822 106.34 139.83 107.428C142.838 108.452 145.654 110.052 148.278 112.228L141.75 121.348C138.038 118.788 134.23 117.508 130.326 117.508C122.71 117.508 118.902 122.788 118.902 133.348C118.902 138.66 119.894 142.468 121.878 144.772C123.862 147.012 126.646 148.132 130.23 148.132Z" fill="white"/>
<path d="M237.75 256.5C231.917 256.5 227.5 255.083 224.5 252.25C221.667 249.25 220.25 245.417 220.25 240.75C220.25 239.25 220.5 237.25 221 234.75L253.75 71.5H273L239.25 239.5H258.75L255.5 256.5H237.75ZM332.168 259.5C325.335 259.5 319.085 258.417 313.418 256.25C307.751 253.917 302.835 250.583 298.668 246.25C294.668 241.75 291.501 236.25 289.168 229.75C286.835 223.083 285.668 215.333 285.668 206.5C285.668 195.667 287.251 185.333 290.418 175.5C293.751 165.5 298.335 156.75 304.168 149.25C310.001 141.75 317.001 135.75 325.168 131.25C333.335 126.75 342.335 124.5 352.168 124.5C358.835 124.5 365.001 125.667 370.668 128C376.501 130.167 381.418 133.5 385.418 138C389.585 142.333 392.835 147.833 395.168 154.5C397.501 161.167 398.668 168.833 398.668 177.5C398.668 188.333 397.001 198.75 393.668 208.75C390.501 218.583 386.001 227.25 380.168 234.75C374.335 242.25 367.335 248.25 359.168 252.75C351.001 257.25 342.001 259.5 332.168 259.5ZM334.668 242.25C344.001 242.25 352.335 238.833 359.668 232C367.001 225.167 372.001 215.167 374.668 202L378.418 183.25C379.251 179.083 379.668 175.333 379.668 172C379.668 163 377.085 155.75 371.918 150.25C366.918 144.583 359.501 141.75 349.668 141.75C340.335 141.75 332.001 145.167 324.668 152C317.335 158.833 312.335 168.833 309.668 182L305.918 200.75C305.085 204.917 304.668 208.667 304.668 212C304.668 221 307.168 228.333 312.168 234C317.335 239.5 324.835 242.25 334.668 242.25ZM428.41 127.5H449.66L455.16 100C456.993 91.1667 460.16 84.25 464.66 79.25C469.327 74.0833 476.66 71.5 486.66 71.5H506.41L503.16 88.5H476.91L468.91 127.5H535.91L513.66 239.5H531.91L528.66 256.5H511.91C506.077 256.5 501.743 255.083 498.91 252.25C496.077 249.25 494.66 245.333 494.66 240.5C494.66 238.833 494.827 237.167 495.16 235.5L513.41 144.5H465.66L438.66 278C436.827 286.833 433.577 293.75 428.91 298.75C424.41 303.917 417.16 306.5 407.16 306.5H390.41L393.66 289.5H416.91L446.41 144.5H425.16L428.41 127.5ZM533.41 97.25C529.577 97.25 526.827 96.4167 525.16 94.75C523.66 92.9167 522.91 90.8333 522.91 88.5C522.91 88 522.91 87.3333 522.91 86.5C523.077 85.5 523.41 83.8333 523.91 81.5C524.577 78.3333 525.91 75.9167 527.91 74.25C530.077 72.4167 533.243 71.5 537.41 71.5C541.243 71.5 543.91 72.4167 545.41 74.25C547.077 75.9167 547.91 77.9167 547.91 80.25C547.91 80.75 547.827 81.5 547.66 82.5C547.66 83.3333 547.41 84.9167 546.91 87.25C546.243 90.4167 544.827 92.9167 542.66 94.75C540.66 96.4167 537.577 97.25 533.41 97.25ZM616.082 259.5C598.415 259.5 584.999 254.75 575.832 245.25C566.665 235.75 562.082 222.333 562.082 205C562.082 194 563.665 183.667 566.832 174C569.999 164.167 574.582 155.583 580.582 148.25C586.582 140.917 593.999 135.167 602.832 131C611.832 126.667 622.082 124.5 633.582 124.5C648.415 124.5 659.749 127.5 667.582 133.5C675.415 139.5 680.749 147.417 683.582 157.25L653.832 171.25C651.999 165.917 649.499 161.667 646.332 158.5C643.165 155.333 637.915 153.75 630.582 153.75C623.415 153.75 617.332 156.083 612.332 160.75C607.499 165.417 604.332 172.25 602.832 181.25L600.332 196.25C599.999 197.75 599.749 199.583 599.582 201.75C599.415 203.917 599.332 206 599.332 208C599.332 214.667 600.999 220.083 604.332 224.25C607.832 228.25 613.749 230.25 622.082 230.25C624.749 230.25 627.249 230 629.582 229.5C631.915 228.833 634.415 227.5 637.082 225.5C639.915 223.5 642.999 220.75 646.332 217.25C649.832 213.583 653.832 208.75 658.332 202.75L681.082 217.5C676.749 224.333 672.415 230.333 668.082 235.5C663.749 240.667 658.999 245.083 653.832 248.75C648.665 252.25 642.999 254.917 636.832 256.75C630.665 258.583 623.749 259.5 616.082 259.5ZM763.984 259.5C746.318 259.5 732.651 254.583 722.984 244.75C713.318 234.75 708.484 221.167 708.484 204C708.484 191.667 710.234 180.583 713.734 170.75C717.401 160.917 722.401 152.583 728.734 145.75C735.234 138.917 742.901 133.667 751.734 130C760.734 126.333 770.651 124.5 781.484 124.5C799.151 124.5 812.818 129.5 822.484 139.5C832.151 149.333 836.984 162.833 836.984 180C836.984 192.333 835.151 203.417 831.484 213.25C827.984 223.083 822.984 231.417 816.484 238.25C810.151 245.083 802.484 250.333 793.484 254C784.651 257.667 774.818 259.5 763.984 259.5ZM766.734 232.25C774.734 232.25 781.234 229.833 786.234 225C791.401 220.167 794.734 213.25 796.234 204.25L799.484 184.75C799.818 183.25 800.068 181.583 800.234 179.75C800.568 177.75 800.734 176 800.734 174.5C800.734 166.833 798.734 161.167 794.734 157.5C790.901 153.667 785.568 151.75 778.734 151.75C770.734 151.75 764.151 154.167 758.984 159C753.984 163.833 750.734 170.75 749.234 179.75L745.984 199.25C745.651 200.75 745.318 202.5 744.984 204.5C744.818 206.333 744.734 208 744.734 209.5C744.734 217.167 746.651 222.917 750.484 226.75C754.484 230.417 759.901 232.25 766.734 232.25ZM939.387 225.75H938.137C935.637 230.75 932.97 235.333 930.137 239.5C927.47 243.5 924.387 247 920.887 250C917.553 253 913.72 255.333 909.387 257C905.22 258.667 900.387 259.5 894.887 259.5C888.053 259.5 882.22 258.333 877.387 256C872.72 253.667 868.887 250.333 865.887 246C862.887 241.5 860.637 236.167 859.137 230C857.803 223.833 857.137 217 857.137 209.5C857.137 196.667 858.553 185.083 861.387 174.75C864.22 164.25 868.22 155.333 873.387 148C878.553 140.5 884.72 134.75 891.887 130.75C899.22 126.583 907.387 124.5 916.387 124.5C926.553 124.5 934.22 126.917 939.387 131.75C944.72 136.417 948.303 143 950.137 151.5H951.887L965.137 71.5H1001.64L970.887 256.5H934.387L939.387 225.75ZM911.137 231.25C915.637 231.25 919.637 230.167 923.137 228C926.637 225.833 929.887 222.833 932.887 219C934.887 216.667 937.137 213.417 939.637 209.25C942.137 204.917 943.803 200.083 944.637 194.75L948.137 174C949.303 167.167 948.22 161.917 944.887 158.25C941.72 154.583 936.137 152.75 928.137 152.75C919.137 152.75 912.22 155.417 907.387 160.75C902.553 165.917 899.303 173.417 897.637 183.25L895.137 198.25C894.803 199.75 894.553 201.5 894.387 203.5C894.22 205.333 894.137 207.333 894.137 209.5C894.303 215.667 895.553 220.833 897.887 225C900.387 229.167 904.803 231.25 911.137 231.25ZM1067.79 259.5C1048.62 259.5 1034.46 254.667 1025.29 245C1016.12 235.167 1011.54 221.667 1011.54 204.5C1011.54 192.5 1013.37 181.583 1017.04 171.75C1020.71 161.917 1025.79 153.5 1032.29 146.5C1038.96 139.5 1046.96 134.083 1056.29 130.25C1065.62 126.417 1076.04 124.5 1087.54 124.5C1094.04 124.5 1100.12 125.25 1105.79 126.75C1111.62 128.25 1116.71 130.5 1121.04 133.5C1125.37 136.333 1128.79 140 1131.29 144.5C1133.79 148.833 1135.04 154 1135.04 160C1135.04 165.167 1133.96 170.333 1131.79 175.5C1129.62 180.667 1125.37 185.417 1119.04 189.75C1112.87 193.917 1104.04 197.5 1092.54 200.5C1081.21 203.333 1066.37 205.083 1048.04 205.75C1047.87 206.75 1047.79 207.583 1047.79 208.25C1047.79 208.75 1047.79 209.333 1047.79 210C1047.79 217 1049.71 222.333 1053.54 226C1057.37 229.667 1063.71 231.5 1072.54 231.5C1076.04 231.5 1079.21 231.167 1082.04 230.5C1085.04 229.833 1087.87 228.667 1090.54 227C1093.37 225.167 1096.12 222.917 1098.79 220.25C1101.62 217.417 1104.71 213.833 1108.04 209.5L1130.79 224.25C1127.46 229.083 1123.79 233.667 1119.79 238C1115.96 242.167 1111.54 245.917 1106.54 249.25C1101.54 252.417 1095.87 254.917 1089.54 256.75C1083.21 258.583 1075.96 259.5 1067.79 259.5ZM1083.79 150.25C1075.79 150.25 1068.96 152.667 1063.29 157.5C1057.62 162.167 1053.62 170.083 1051.29 181.25L1050.54 184.75C1062.04 184.083 1071.04 183 1077.54 181.5C1084.21 180 1089.12 178.25 1092.29 176.25C1095.62 174.25 1097.71 172.083 1098.54 169.75C1099.37 167.417 1099.79 165.25 1099.79 163.25C1099.79 154.583 1094.46 150.25 1083.79 150.25Z" fill="white"/>
</svg>
