<svg width="1400" height="405" viewBox="0 0 1400 405" fill="none" xmlns="http://www.w3.org/2000/svg">
<g clip-path="url(#clip0_1_2)">
<path d="M348.75 52.5H61.25C57.8125 52.5 55 55.3125 55 58.75V108.75H355V58.75C355 55.3125 352.188 52.5 348.75 52.5Z" fill="#FF0F7B"/>
<path d="M55 346.25C55 349.688 57.8125 352.5 61.25 352.5H348.75C352.188 352.5 355 349.688 355 346.25V121.25H55V346.25Z" fill="url(#paint0_linear_1_2)"/>
<path d="M98.832 188.716V194.22L74.512 209.388L71.632 205.42L94.224 191.468L71.632 177.58L74.256 173.484L98.832 188.716ZM137.687 195.468C137.687 199.244 139.863 201.132 144.215 201.132C146.583 201.132 149.015 200.62 151.511 199.596L155.063 209.772C150.967 212.012 146.071 213.132 140.375 213.132C134.423 213.132 129.943 211.436 126.935 208.044C123.991 204.588 122.519 199.756 122.519 193.548V150.636H107.543V140.268H137.687V195.468ZM195.73 201.132C197.65 201.132 199.506 200.78 201.298 200.076C203.09 199.308 205.01 198.22 207.058 196.812L213.778 206.412C211.346 208.46 208.53 210.092 205.33 211.308C202.13 212.524 198.642 213.132 194.866 213.132C189.426 213.132 184.722 212.012 180.754 209.772C176.85 207.532 173.842 204.396 171.73 200.364C169.618 196.332 168.562 191.66 168.562 186.348C168.562 181.036 169.65 176.3 171.826 172.14C174.002 167.98 177.074 164.716 181.042 162.348C185.074 159.98 189.778 158.796 195.154 158.796C198.93 158.796 202.322 159.34 205.33 160.428C208.338 161.452 211.154 163.052 213.778 165.228L207.25 174.348C203.538 171.788 199.73 170.508 195.826 170.508C188.21 170.508 184.402 175.788 184.402 186.348C184.402 191.66 185.394 195.468 187.378 197.772C189.362 200.012 192.146 201.132 195.73 201.132Z" fill="white"/>
</g>
<path d="M440.25 296C434.417 296 430 294.583 427 291.75C424.167 288.75 422.75 284.917 422.75 280.25C422.75 278.75 423 276.75 423.5 274.25L456.25 111H475.5L441.75 279H461.25L458 296H440.25ZM534.668 299C527.835 299 521.585 297.917 515.918 295.75C510.251 293.417 505.335 290.083 501.168 285.75C497.168 281.25 494.001 275.75 491.668 269.25C489.335 262.583 488.168 254.833 488.168 246C488.168 235.167 489.751 224.833 492.918 215C496.251 205 500.835 196.25 506.668 188.75C512.501 181.25 519.501 175.25 527.668 170.75C535.835 166.25 544.835 164 554.668 164C561.335 164 567.501 165.167 573.168 167.5C579.001 169.667 583.918 173 587.918 177.5C592.085 181.833 595.335 187.333 597.668 194C600.001 200.667 601.168 208.333 601.168 217C601.168 227.833 599.501 238.25 596.168 248.25C593.001 258.083 588.501 266.75 582.668 274.25C576.835 281.75 569.835 287.75 561.668 292.25C553.501 296.75 544.501 299 534.668 299ZM537.168 281.75C546.501 281.75 554.835 278.333 562.168 271.5C569.501 264.667 574.501 254.667 577.168 241.5L580.918 222.75C581.751 218.583 582.168 214.833 582.168 211.5C582.168 202.5 579.585 195.25 574.418 189.75C569.418 184.083 562.001 181.25 552.168 181.25C542.835 181.25 534.501 184.667 527.168 191.5C519.835 198.333 514.835 208.333 512.168 221.5L508.418 240.25C507.585 244.417 507.168 248.167 507.168 251.5C507.168 260.5 509.668 267.833 514.668 273.5C519.835 279 527.335 281.75 537.168 281.75ZM630.91 167H652.16L657.66 139.5C659.493 130.667 662.66 123.75 667.16 118.75C671.827 113.583 679.16 111 689.16 111H708.91L705.66 128H679.41L671.41 167H738.41L716.16 279H734.41L731.16 296H714.41C708.577 296 704.243 294.583 701.41 291.75C698.577 288.75 697.16 284.833 697.16 280C697.16 278.333 697.327 276.667 697.66 275L715.91 184H668.16L641.16 317.5C639.327 326.333 636.077 333.25 631.41 338.25C626.91 343.417 619.66 346 609.66 346H592.91L596.16 329H619.41L648.91 184H627.66L630.91 167ZM735.91 136.75C732.077 136.75 729.327 135.917 727.66 134.25C726.16 132.417 725.41 130.333 725.41 128C725.41 127.5 725.41 126.833 725.41 126C725.577 125 725.91 123.333 726.41 121C727.077 117.833 728.41 115.417 730.41 113.75C732.577 111.917 735.743 111 739.91 111C743.743 111 746.41 111.917 747.91 113.75C749.577 115.417 750.41 117.417 750.41 119.75C750.41 120.25 750.327 121 750.16 122C750.16 122.833 749.91 124.417 749.41 126.75C748.743 129.917 747.327 132.417 745.16 134.25C743.16 135.917 740.077 136.75 735.91 136.75ZM818.582 299C800.915 299 787.499 294.25 778.332 284.75C769.165 275.25 764.582 261.833 764.582 244.5C764.582 233.5 766.165 223.167 769.332 213.5C772.499 203.667 777.082 195.083 783.082 187.75C789.082 180.417 796.499 174.667 805.332 170.5C814.332 166.167 824.582 164 836.082 164C850.915 164 862.249 167 870.082 173C877.915 179 883.249 186.917 886.082 196.75L856.332 210.75C854.499 205.417 851.999 201.167 848.832 198C845.665 194.833 840.415 193.25 833.082 193.25C825.915 193.25 819.832 195.583 814.832 200.25C809.999 204.917 806.832 211.75 805.332 220.75L802.832 235.75C802.499 237.25 802.249 239.083 802.082 241.25C801.915 243.417 801.832 245.5 801.832 247.5C801.832 254.167 803.499 259.583 806.832 263.75C810.332 267.75 816.249 269.75 824.582 269.75C827.249 269.75 829.749 269.5 832.082 269C834.415 268.333 836.915 267 839.582 265C842.415 263 845.499 260.25 848.832 256.75C852.332 253.083 856.332 248.25 860.832 242.25L883.582 257C879.249 263.833 874.915 269.833 870.582 275C866.249 280.167 861.499 284.583 856.332 288.25C851.165 291.75 845.499 294.417 839.332 296.25C833.165 298.083 826.249 299 818.582 299ZM966.484 299C948.818 299 935.151 294.083 925.484 284.25C915.818 274.25 910.984 260.667 910.984 243.5C910.984 231.167 912.734 220.083 916.234 210.25C919.901 200.417 924.901 192.083 931.234 185.25C937.734 178.417 945.401 173.167 954.234 169.5C963.234 165.833 973.151 164 983.984 164C1001.65 164 1015.32 169 1024.98 179C1034.65 188.833 1039.48 202.333 1039.48 219.5C1039.48 231.833 1037.65 242.917 1033.98 252.75C1030.48 262.583 1025.48 270.917 1018.98 277.75C1012.65 284.583 1004.98 289.833 995.984 293.5C987.151 297.167 977.318 299 966.484 299ZM969.234 271.75C977.234 271.75 983.734 269.333 988.734 264.5C993.901 259.667 997.234 252.75 998.734 243.75L1001.98 224.25C1002.32 222.75 1002.57 221.083 1002.73 219.25C1003.07 217.25 1003.23 215.5 1003.23 214C1003.23 206.333 1001.23 200.667 997.234 197C993.401 193.167 988.068 191.25 981.234 191.25C973.234 191.25 966.651 193.667 961.484 198.5C956.484 203.333 953.234 210.25 951.734 219.25L948.484 238.75C948.151 240.25 947.818 242 947.484 244C947.318 245.833 947.234 247.5 947.234 249C947.234 256.667 949.151 262.417 952.984 266.25C956.984 269.917 962.401 271.75 969.234 271.75ZM1141.89 265.25H1140.64C1138.14 270.25 1135.47 274.833 1132.64 279C1129.97 283 1126.89 286.5 1123.39 289.5C1120.05 292.5 1116.22 294.833 1111.89 296.5C1107.72 298.167 1102.89 299 1097.39 299C1090.55 299 1084.72 297.833 1079.89 295.5C1075.22 293.167 1071.39 289.833 1068.39 285.5C1065.39 281 1063.14 275.667 1061.64 269.5C1060.3 263.333 1059.64 256.5 1059.64 249C1059.64 236.167 1061.05 224.583 1063.89 214.25C1066.72 203.75 1070.72 194.833 1075.89 187.5C1081.05 180 1087.22 174.25 1094.39 170.25C1101.72 166.083 1109.89 164 1118.89 164C1129.05 164 1136.72 166.417 1141.89 171.25C1147.22 175.917 1150.8 182.5 1152.64 191H1154.39L1167.64 111H1204.14L1173.39 296H1136.89L1141.89 265.25ZM1113.64 270.75C1118.14 270.75 1122.14 269.667 1125.64 267.5C1129.14 265.333 1132.39 262.333 1135.39 258.5C1137.39 256.167 1139.64 252.917 1142.14 248.75C1144.64 244.417 1146.3 239.583 1147.14 234.25L1150.64 213.5C1151.8 206.667 1150.72 201.417 1147.39 197.75C1144.22 194.083 1138.64 192.25 1130.64 192.25C1121.64 192.25 1114.72 194.917 1109.89 200.25C1105.05 205.417 1101.8 212.917 1100.14 222.75L1097.64 237.75C1097.3 239.25 1097.05 241 1096.89 243C1096.72 244.833 1096.64 246.833 1096.64 249C1096.8 255.167 1098.05 260.333 1100.39 264.5C1102.89 268.667 1107.3 270.75 1113.64 270.75ZM1270.29 299C1251.12 299 1236.96 294.167 1227.79 284.5C1218.62 274.667 1214.04 261.167 1214.04 244C1214.04 232 1215.87 221.083 1219.54 211.25C1223.21 201.417 1228.29 193 1234.79 186C1241.46 179 1249.46 173.583 1258.79 169.75C1268.12 165.917 1278.54 164 1290.04 164C1296.54 164 1302.62 164.75 1308.29 166.25C1314.12 167.75 1319.21 170 1323.54 173C1327.87 175.833 1331.29 179.5 1333.79 184C1336.29 188.333 1337.54 193.5 1337.54 199.5C1337.54 204.667 1336.46 209.833 1334.29 215C1332.12 220.167 1327.87 224.917 1321.54 229.25C1315.37 233.417 1306.54 237 1295.04 240C1283.71 242.833 1268.87 244.583 1250.54 245.25C1250.37 246.25 1250.29 247.083 1250.29 247.75C1250.29 248.25 1250.29 248.833 1250.29 249.5C1250.29 256.5 1252.21 261.833 1256.04 265.5C1259.87 269.167 1266.21 271 1275.04 271C1278.54 271 1281.71 270.667 1284.54 270C1287.54 269.333 1290.37 268.167 1293.04 266.5C1295.87 264.667 1298.62 262.417 1301.29 259.75C1304.12 256.917 1307.21 253.333 1310.54 249L1333.29 263.75C1329.96 268.583 1326.29 273.167 1322.29 277.5C1318.46 281.667 1314.04 285.417 1309.04 288.75C1304.04 291.917 1298.37 294.417 1292.04 296.25C1285.71 298.083 1278.46 299 1270.29 299ZM1286.29 189.75C1278.29 189.75 1271.46 192.167 1265.79 197C1260.12 201.667 1256.12 209.583 1253.79 220.75L1253.04 224.25C1264.54 223.583 1273.54 222.5 1280.04 221C1286.71 219.5 1291.62 217.75 1294.79 215.75C1298.12 213.75 1300.21 211.583 1301.04 209.25C1301.87 206.917 1302.29 204.75 1302.29 202.75C1302.29 194.083 1296.96 189.75 1286.29 189.75Z" fill="url(#paint1_linear_1_2)"/>
<defs>
<linearGradient id="paint0_linear_1_2" x1="34.5455" y1="120.682" x2="389.091" y2="379.773" gradientUnits="userSpaceOnUse">
<stop stop-color="#FF0F7B"/>
<stop offset="1" stop-color="#F89B29"/>
</linearGradient>
<linearGradient id="paint1_linear_1_2" x1="1350" y1="40" x2="408.279" y2="328.125" gradientUnits="userSpaceOnUse">
<stop stop-color="#FF0F7B"/>
<stop offset="1" stop-color="#F89B29"/>
</linearGradient>
<clipPath id="clip0_1_2">
<rect width="300" height="300" fill="white" transform="translate(55 52.5)"/>
</clipPath>
</defs>
</svg>
